<svg width="32" height="23" viewBox="0 0 32 23" fill="none" xmlns="http://www.w3.org/2000/svg">
<g clip-path="url(#clip0_1_3596)">
<path d="M31.2786 6.93611C31.2879 5.10629 30.5701 3.34769 29.2831 2.04699C27.996 0.746293 26.2451 0.00999335 24.4152 0H6.86342C5.0336 0.00999335 3.28266 0.746293 1.9956 2.04699C0.708536 3.34769 -0.00926002 5.10629 3.29419e-05 6.93611V15.1888C-0.0095108 17.0187 0.708194 18.7775 1.99531 20.0782C3.28242 21.379 5.03352 22.1152 6.86342 22.1249H24.4152C26.2451 22.1152 27.9962 21.379 29.2834 20.0782C30.5705 18.7775 31.2882 17.0187 31.2786 15.1888V6.93611ZM20.9566 11.682L13.0865 15.6176C12.7786 15.7857 11.7293 15.56 11.7293 15.2058V7.12784C11.7293 6.76895 12.7871 6.54322 13.0959 6.72078L20.6289 10.8632C20.9453 11.0455 21.2768 11.5073 20.9566 11.682Z" fill="#DFC091"/>
</g>
<defs>
<clipPath id="clip0_1_3596">
<rect width="31.2786" height="22.1268" fill="white"/>
</clipPath>
</defs>
</svg>
